<!--?xml version="1.0" encoding="utf-8"?-->
<!-- Generator: Adobe Illustrator 25.2.3, SVG Export Plug-In . SVG Version: 6.00 Build 0)  -->
<svg version="1.1" id="_x34_" xmlns="http://www.w3.org/2000/svg" xmlns:xlink="http://www.w3.org/1999/xlink" x="0px" y="0px" viewBox="0 0 800 190.6" style="enable-background:new 0 0 800 190.6;" xml:space="preserve">
<style type="text/css">
	.stblack{fill:#000000;}
	.st0{fill:#FFFFFF;}
</style>
<g>
	<path class="stblack" d="M590.4,113.4c-20.8,29.5-2.8,71.4-2.8,71.4s-56.3,12.1-63.1-49.4L590.4,113.4z"></path>
	<path class="stblack" d="M96.7,158.1c-42.3,0-76.7-34.4-76.7-76.7S54.4,4.8,96.7,4.8h606.7c42.3,0,76.7,34.4,76.7,76.7s-34.4,76.7-76.7,76.7
		L96.7,158.1L96.7,158.1z"></path>
	<path class="st0" d="M702.4,142.2H95.7c-35.8,0-65-29.3-65-65l0,0c0-35.8,29.3-65,65-65h606.7c35.8,0,65,29.3,65,65l0,0
		C767.4,113,738.1,142.2,702.4,142.2z"></path>
	<path class="st0" d="M569.5,132.3c-7.2,14.3,2.4,42.6,5,45c-19-1.1-32.8-15.5-37.6-38.3L569.5,132.3z"></path>
</g>
</svg>
